<svg xmlns="http://www.w3.org/2000/svg" viewBox="0 22 100 56">
  <defs>
    <linearGradient id="grad" x1="0%" y1="0%" x2="100%" y2="100%">
      <stop offset="0%" stop-color="#0071e3" />
      <stop offset="100%" stop-color="#00d2ff" />
    </linearGradient>
  </defs>
  <path d="M 30,25 C 15,25 5,35 5,50 C 5,65 15,75 30,75 C 42,75 48,65 50,60 C 52,65 58,75 70,75 C 85,75 95,65 95,50 C 95,35 85,25 70,25 C 58,25 52,35 50,40 C 48,35 42,25 30,25 Z M 30,37 C 38,37 44,45 46,49 C 47,51 47,51 46,51 C 44,55 38,63 30,63 C 22,63 17,57 17,50 C 17,43 22,37 30,37 Z M 70,37 C 78,37 83,43 83,50 C 83,57 78,63 70,63 C 62,63 56,55 54,51 C 53,51 53,51 54,49 C 56,45 62,37 70,37 Z" fill="url(#grad)" />
</svg>
